<?xml version="1.0"?>
<svg width="1890" height="1890" xmlns="http://www.w3.org/2000/svg" xmlns:svg="http://www.w3.org/2000/svg" clip-rule="evenodd" fill-rule="evenodd" stroke-linejoin="round" version="1.1" xml:space="preserve">

 <g class="layer">
  <title>Layer 1</title>
  <g id="svg_1" transform="translate(3, 374) matrix(1.59497, 0, 0, 1.64041, -259.914, -160.022)">
   <path d="m193.79,1018.64c-18.44,-30.84 -29.05,-66.99 -29.05,-105.65c0,-112.77 90.37,-204.33 201.69,-204.33c31.28,0 60.9,7.23 87.33,20.13c0.68,-114.34 94.82,-206.97 210.68,-206.97c116.28,0 210.69,93.29 210.69,208.21c0,11.83 -1,23.44 -2.93,34.73c16,0.06 31.61,1.57 46.64,4.39c11.76,-91.88 102.29,-163.45 212.08,-163.45c117.76,0 213.37,82.35 213.37,183.78c0,35.15 -11.48,68 -31.39,95.94c19.94,29.22 31.39,63.33 31.39,99.76c0,11.41 -1.12,22.59 -3.27,33.46l-1147.23,0z" fill="rgb(3,131,82)" id="svg_2"/>
   <path d="m738,1018.64l-544.21,0c-18.44,-30.84 -29.05,-66.99 -29.05,-105.65c0,-112.77 90.37,-204.33 201.69,-204.33c31.28,0 60.9,7.23 87.33,20.13c0.68,-114.34 94.82,-206.97 210.68,-206.97c25.87,0 50.66,4.62 73.56,13.06l0,483.76z" fill="rgb(4,149,94)" id="svg_3"/>
  </g>
 </g>
</svg>